# xmcd
#
# Track frame offsets: 
#        150
#        12493
#        22283
#        26173
#        40874
#        50761
#        65859
#        79909
#        101249
#        110513
#        123194
#        134534
#        146752
#        164138
#        185997
#        201231
#        221181
#        233945
#        245345
#        257967
#        270390
#        287149
#        299248
#        300167
#        314757
#        328061
#        341268
#
# Disc length: 4586 seconds
#
# Revision: 0
# Processed by: cddbd v1.5.2PL0 Copyright (c) Steve Scherf et al.
# Submitted via: ExactAudioCopy v1.3
#
DISCID=c611e81b
DTITLE=The Junkers - How the Midwest Was Won - Disc 1
DYEAR=1900
DGENRE=Country
TTITLE0=Whiskey River
TTITLE1=I Can Get Off on You
TTITLE2=Soundshaker
TTITLE3=T for Texas
TTITLE4=Hillbilly Golf
TTITLE5=Murder for Christmas
TTITLE6=Custom Van
TTITLE7=Martha
TTITLE8=The Wrong End of Goodbye
TTITLE9=Good Hearted Woman
TTITLE10=He's Unstable
TTITLE11=My Uncle Used to Love Me But She Died
TTITLE12=Buckeye Mile
TTITLE13=Wildwood Flower - I've Always Been Crazy
TTITLE14=Too Drunk for Church
TTITLE15=Cowboy La Cage Aux Folles
TTITLE16=Rated X
TTITLE17=9 to 5
TTITLE18=Bareback
TTITLE19=Friend of the Family
TTITLE20=Coffin Nail
TTITLE21=Big Yellow Moon
TTITLE22=Pint of No Return - Intro
TTITLE23=Pint of No Return
TTITLE24=Bad Dog
TTITLE25=I Always Cry at Divorces (intro)
TTITLE26=I Always Cry at Divorces (conclusion)
EXTD=
EXTT0=
EXTT1=
EXTT2=
EXTT3=
EXTT4=
EXTT5=
EXTT6=
EXTT7=
EXTT8=
EXTT9=
EXTT10=
EXTT11=
EXTT12=
EXTT13=
EXTT14=
EXTT15=
EXTT16=
EXTT17=
EXTT18=
EXTT19=
EXTT20=
EXTT21=
EXTT22=
EXTT23=
EXTT24=
EXTT25=
EXTT26=
PLAYORDER=
